<svg width="42" height="42" viewBox="0 0 42 42" fill="none" xmlns="http://www.w3.org/2000/svg">
<g clip-path="url(#clip0_200_18)">
<path d="M9.59177 3.486C9.4368 3.28666 9.2412 3.12257 9.01795 3.00464C8.79469 2.88671 8.5489 2.81762 8.2969 2.80198C8.0449 2.78634 7.79245 2.8245 7.55633 2.91392C7.32021 3.00334 7.10581 3.14198 6.92739 3.32062L4.21314 6.0375C2.94527 7.308 2.47802 9.10613 3.03189 10.6838C5.33331 17.2124 9.07242 23.1404 13.9729 28.0298C18.8622 32.9302 24.7902 36.6693 31.3189 38.9707C32.8965 39.5246 34.6946 39.0574 35.9651 37.7895L38.6794 35.0752C38.858 34.8968 38.9967 34.6824 39.0861 34.4463C39.1755 34.2102 39.2137 33.9577 39.198 33.7057C39.1824 33.4537 39.1133 33.2079 38.9954 32.9847C38.8774 32.7614 38.7134 32.5658 38.514 32.4109L32.4581 27.7016C32.245 27.5368 31.9973 27.4224 31.7336 27.3669C31.4699 27.3114 31.1971 27.3164 30.9356 27.3814L25.1869 28.8172C24.4195 29.0077 23.6159 28.9969 22.8539 28.7858C22.0919 28.5748 21.3973 28.1706 20.8373 27.6124L14.3903 21.1628C13.8316 20.603 13.4269 19.9085 13.2154 19.1465C13.0038 18.3845 12.9926 17.5808 13.1828 16.8131L14.6213 11.0644C14.6863 10.8029 14.6912 10.5301 14.6357 10.2664C14.5803 10.0027 14.4658 9.75502 14.301 9.54187L9.59177 3.486ZM4.94552 1.34137C5.40488 0.881867 5.95674 0.525342 6.56446 0.295473C7.17217 0.0656042 7.82184 -0.0323485 8.47032 0.00811921C9.11879 0.048587 9.75124 0.226549 10.3257 0.530189C10.9001 0.833829 11.4033 1.2562 11.802 1.76925L16.5113 7.8225C17.3749 8.93287 17.6794 10.3793 17.3381 11.7443L15.9023 17.493C15.8285 17.7908 15.8328 18.1025 15.9147 18.3982C15.9965 18.6938 16.1532 18.9634 16.3695 19.1809L22.8191 25.6305C23.0369 25.8473 23.3069 26.0042 23.603 26.0861C23.8992 26.1679 24.2115 26.1719 24.5096 26.0977L30.2558 24.6619C30.9295 24.4944 31.6323 24.4818 32.3116 24.6251C32.9908 24.7683 33.6288 25.0636 34.1775 25.4887L40.2308 30.198C42.4069 31.8911 42.6064 35.1067 40.6586 37.0519L37.9444 39.7661C36.0019 41.7086 33.0986 42.5617 30.3923 41.6089C23.464 39.1744 17.1742 35.2085 11.991 30.0064C6.78924 24.824 2.82334 18.535 0.388515 11.6077C-0.561734 8.904 0.291391 5.99812 2.23389 4.05562L4.94552 1.34137Z" fill="black"/>
</g>
<defs>
<clipPath id="clip0_200_18">
<rect width="42" height="42" fill="white"/>
</clipPath>
</defs>
</svg>
