<svg width="42" height="42" viewBox="0 0 42 42" fill="none" xmlns="http://www.w3.org/2000/svg">
<g clip-path="url(#clip0_200_96)">
<path d="M28.875 18.375C28.875 22.7325 25.3575 26.25 21 26.25C16.6425 26.25 13.125 22.7325 13.125 18.375C13.125 14.0175 16.6425 10.5 21 10.5C25.3575 10.5 28.875 14.0175 28.875 18.375Z" fill="black"/>
<path fill-rule="evenodd" clip-rule="evenodd" d="M42 21C42 32.6025 32.6025 42 21 42C9.3975 42 0 32.6025 0 21C0 9.3975 9.3975 0 21 0C32.6025 0 42 9.3975 42 21ZM10.5 36.0938C10.92 35.3955 14.9887 28.875 20.9737 28.875C26.9325 28.875 31.0275 35.4113 31.4475 36.0938C33.8884 34.4058 35.8828 32.1503 37.2591 29.5211C38.6355 26.8919 39.3526 23.9677 39.3488 21C39.3488 10.8413 31.1325 2.625 20.9737 2.625C10.815 2.625 2.59875 10.8413 2.59875 21C2.59875 27.2475 5.7225 32.7863 10.5 36.0938Z" fill="black"/>
</g>
<defs>
<clipPath id="clip0_200_96">
<rect width="42" height="42" fill="white"/>
</clipPath>
</defs>
</svg>
