<svg width="44" height="44" viewBox="0 0 44 44" fill="none" xmlns="http://www.w3.org/2000/svg">
<path fill-rule="evenodd" clip-rule="evenodd" d="M6.3616 22.9717C6.1041 22.7139 5.95947 22.3644 5.95947 22C5.95947 21.6356 6.1041 21.2862 6.3616 21.0283L17.3616 10.0283C17.4875 9.89324 17.6393 9.78489 17.8079 9.70974C17.9766 9.63459 18.1587 9.59418 18.3433 9.59092C18.5279 9.58766 18.7113 9.62162 18.8825 9.69078C19.0537 9.75994 19.2093 9.86287 19.3398 9.99343C19.4704 10.124 19.5733 10.2795 19.6425 10.4507C19.7116 10.622 19.7456 10.8053 19.7423 10.99C19.7391 11.1746 19.6987 11.3567 19.6235 11.5253C19.5484 11.694 19.44 11.8458 19.3049 11.9717L10.6516 20.625H36.6666C37.0313 20.625 37.381 20.7699 37.6389 21.0277C37.8967 21.2856 38.0416 21.6353 38.0416 22C38.0416 22.3647 37.8967 22.7144 37.6389 22.9723C37.381 23.2301 37.0313 23.375 36.6666 23.375H10.6516L19.3049 32.0283C19.44 32.1542 19.5484 32.306 19.6235 32.4747C19.6987 32.6433 19.7391 32.8254 19.7423 33.01C19.7456 33.1947 19.7116 33.3781 19.6425 33.5493C19.5733 33.7205 19.4704 33.876 19.3398 34.0066C19.2093 34.1371 19.0537 34.2401 18.8825 34.3092C18.7113 34.3784 18.5279 34.4123 18.3433 34.4091C18.1587 34.4058 17.9766 34.3654 17.8079 34.2903C17.6393 34.2151 17.4875 34.1068 17.3616 33.9717L6.3616 22.9717Z" fill="black"/>
</svg>
