<svg xmlns="http://www.w3.org/2000/svg" width="24" height="25" viewBox="0 0 24 25" fill="none">
  <path d="M14.4401 6.28L4.19808 16.52C3.89356 16.8244 3.6954 17.219 3.63308 17.645L3.08008 21.419L6.85508 20.866C7.28124 20.8034 7.67581 20.6049 7.98008 20.3L18.2201 10.06M14.4401 6.28L16.6691 4.05C16.8177 3.90138 16.9941 3.7835 17.1882 3.70307C17.3823 3.62264 17.5904 3.58124 17.8006 3.58124C18.0107 3.58124 18.2188 3.62264 18.413 3.70307C18.6071 3.7835 18.7835 3.90138 18.9321 4.05L20.4501 5.568C20.5987 5.71657 20.7166 5.89297 20.797 6.08712C20.8774 6.28126 20.9188 6.48935 20.9188 6.6995C20.9188 6.90964 20.8774 7.11773 20.797 7.31187C20.7166 7.50602 20.5987 7.68242 20.4501 7.831L18.2201 10.06M14.4401 6.28L18.2201 10.06" stroke="black" stroke-width="1.5" stroke-linecap="round" stroke-linejoin="round"/>
</svg>
