<svg xmlns="http://www.w3.org/2000/svg" width="24" height="25" viewBox="0 0 24 25" fill="none">
  <path d="M18 9.5L17.16 17.898C17.033 19.171 16.97 19.807 16.68 20.288C16.4257 20.7114 16.0516 21.05 15.605 21.261C15.098 21.5 14.46 21.5 13.18 21.5H10.82C9.541 21.5 8.902 21.5 8.395 21.26C7.94805 21.0491 7.57361 20.7106 7.319 20.287C7.031 19.807 6.967 19.171 6.839 17.898L6 9.5M13.5 16V11M10.5 16V11M4.5 7H9.115M9.115 7L9.501 4.328C9.613 3.842 10.017 3.5 10.481 3.5H13.519C13.983 3.5 14.386 3.842 14.499 4.328L14.885 7M9.115 7H14.885M14.885 7H19.5" stroke="black" stroke-width="1.5" stroke-linecap="round" stroke-linejoin="round"/>
</svg>
