<svg width="20" height="20" viewBox="0 0 20 20" fill="none" xmlns="http://www.w3.org/2000/svg">
  <path d="M7.90084 9.34917C7.72823 9.17656 7.49412 9.07959 7.25001 9.07959C7.0059 9.07959 6.77179 9.17656 6.59917 9.34917C6.42656 9.52178 6.32959 9.75589 6.32959 10C6.32959 10.2441 6.42656 10.4782 6.59917 10.6508L9.34917 13.4008C9.43483 13.4858 9.53641 13.553 9.64809 13.5986C9.75978 13.6442 9.87937 13.6674 10 13.6667C10.1255 13.6627 10.2488 13.633 10.3624 13.5794C10.4759 13.5257 10.5772 13.4494 10.66 13.355L17.0767 6.02167C17.2248 5.83772 17.2963 5.60368 17.2761 5.36835C17.2559 5.13301 17.1457 4.91455 16.9684 4.75851C16.791 4.60247 16.5603 4.5209 16.3243 4.53081C16.0884 4.54071 15.8653 4.64132 15.7017 4.81167L10 11.4117L7.90084 9.34917Z" fill="#30B43C"/>
  <path d="M18.2499 9.08333C18.0068 9.08333 17.7736 9.17991 17.6017 9.35181C17.4298 9.52372 17.3332 9.75688 17.3332 10C17.3332 11.9449 16.5606 13.8102 15.1854 15.1854C13.8101 16.5607 11.9448 17.3333 9.99991 17.3333C8.55166 17.3327 7.13603 16.9032 5.93153 16.0991C4.72702 15.2949 3.78759 14.1522 3.23168 12.8149C2.67578 11.4776 2.52829 10.0056 2.80782 8.58456C3.08736 7.16354 3.78139 5.85711 4.80241 4.83C5.48139 4.14193 6.29078 3.5962 7.18323 3.22474C8.07568 2.85328 9.03325 2.66355 9.99991 2.66666C10.5861 2.6704 11.1701 2.73803 11.7416 2.86833C11.8612 2.90532 11.9871 2.91742 12.1115 2.90389C12.236 2.89036 12.3563 2.85149 12.4652 2.78966C12.574 2.72783 12.6691 2.64436 12.7444 2.5444C12.8198 2.44444 12.8739 2.3301 12.9033 2.20843C12.9328 2.08677 12.9371 1.96035 12.9158 1.83699C12.8946 1.71362 12.8483 1.59591 12.7798 1.49112C12.7113 1.38633 12.6221 1.29668 12.5176 1.22769C12.4132 1.1587 12.2957 1.11184 12.1724 1.08999C11.4604 0.922154 10.7315 0.836043 9.99991 0.833328C8.18889 0.842736 6.42123 1.38839 4.92001 2.40143C3.4188 3.41446 2.2513 4.84949 1.56485 6.5254C0.878405 8.20131 0.703772 10.043 1.06299 11.8181C1.42221 13.5931 2.29919 15.222 3.58324 16.4992C5.28521 18.2019 7.59242 19.161 9.99991 19.1667C12.4311 19.1667 14.7626 18.2009 16.4817 16.4818C18.2008 14.7627 19.1666 12.4311 19.1666 10C19.1666 9.75688 19.07 9.52372 18.8981 9.35181C18.7262 9.17991 18.493 9.08333 18.2499 9.08333Z" fill="#30B43C"/>
</svg>
