<svg width="24" height="25" viewBox="0 0 24 25" fill="none" xmlns="http://www.w3.org/2000/svg">
<path d="M11.25 17.252C9.53067 17.252 8.05933 16.6756 6.836 15.523C5.612 14.3696 5 12.9463 5 11.253V5.02197C5 4.75397 5.09967 4.52031 5.299 4.32097C5.49833 4.12164 5.732 4.02197 6 4.02197H18.25C19.01 4.02197 19.6583 4.27731 20.195 4.78797C20.7317 5.29731 21 5.92664 21 6.67597C21 7.46197 20.7353 8.13264 20.206 8.68797C19.6767 9.24331 19.0247 9.52131 18.25 9.52197H17.308V11.252C17.308 12.924 16.7183 14.342 15.539 15.506C14.3603 16.6706 12.9307 17.253 11.25 17.253M6 8.52197H16.308V5.02197H6V8.52197ZM11.25 16.252C12.6593 16.252 13.8543 15.768 14.835 14.8C15.817 13.8313 16.308 12.649 16.308 11.253V9.52197H6V11.252C6 12.6613 6.51633 13.8473 7.549 14.81C8.58167 15.7726 9.81533 16.2536 11.25 16.253M17.308 8.52197H18.25C18.7433 8.52197 19.1583 8.34264 19.495 7.98397C19.8317 7.62531 20 7.18931 20 6.67597C20 6.20797 19.8253 5.81531 19.476 5.49797C19.1267 5.18064 18.718 5.02197 18.25 5.02197H17.308V8.52197ZM5 20.022V19.022H19V20.022H5Z" fill="black"/>
</svg>
