<svg xmlns="http://www.w3.org/2000/svg" width="24" height="25" viewBox="0 0 24 25" fill="none">
  <path d="M12.75 11.75V5.5C12.75 5.30109 12.671 5.11032 12.5303 4.96967C12.3897 4.82902 12.1989 4.75 12 4.75C11.8011 4.75 11.6103 4.82902 11.4697 4.96967C11.329 5.11032 11.25 5.30109 11.25 5.5V11.75H5C4.80109 11.75 4.61032 11.829 4.46967 11.9697C4.32902 12.1103 4.25 12.3011 4.25 12.5C4.25 12.6989 4.32902 12.8897 4.46967 13.0303C4.61032 13.171 4.80109 13.25 5 13.25H11.25V19.5C11.2526 19.6981 11.3324 19.8874 11.4725 20.0275C11.6126 20.1676 11.8019 20.2474 12 20.25C12.1989 20.25 12.3897 20.171 12.5303 20.0303C12.671 19.8897 12.75 19.6989 12.75 19.5V13.25H19C19.1989 13.25 19.3897 13.171 19.5303 13.0303C19.671 12.8897 19.75 12.6989 19.75 12.5C19.7474 12.3019 19.6676 12.1126 19.5275 11.9725C19.3874 11.8324 19.1981 11.7526 19 11.75H12.75Z" fill="black"/>
</svg>
