<svg xmlns="http://www.w3.org/2000/svg" width="42" height="42" viewBox="0 0 42 42" fill="none">
  <path d="M16.9925 19.7575C16.663 19.428 16.216 19.2428 15.75 19.2428C15.284 19.2428 14.837 19.428 14.5075 19.7575C14.178 20.087 13.9928 20.534 13.9928 21C13.9928 21.466 14.178 21.913 14.5075 22.2425L19.7575 27.4925C19.921 27.6547 20.115 27.783 20.3282 27.8701C20.5414 27.9572 20.7697 28.0013 21 28C21.2396 27.9924 21.475 27.9357 21.6918 27.8333C21.9085 27.731 22.1019 27.5852 22.26 27.405L34.51 13.405C34.7929 13.0538 34.9292 12.607 34.8907 12.1577C34.8522 11.7085 34.6417 11.2914 34.3032 10.9935C33.9647 10.6956 33.5243 10.5399 33.0737 10.5588C32.6232 10.5777 32.1974 10.7698 31.885 11.095L21 23.695L16.9925 19.7575Z" fill="black"/>
  <path d="M36.75 19.25C36.2859 19.25 35.8407 19.4344 35.5126 19.7626C35.1844 20.0908 35 20.5359 35 21C35 24.713 33.525 28.274 30.8995 30.8995C28.274 33.525 24.713 35 21 35C18.2351 34.9987 15.5326 34.1788 13.2331 32.6437C10.9336 31.1085 9.14011 28.9269 8.07884 26.3738C7.01756 23.8208 6.736 21.0107 7.26965 18.2978C7.8033 15.585 9.12828 13.0908 11.0775 11.13C12.3737 9.81642 13.9189 8.77457 15.6227 8.06542C17.3265 7.35627 19.1545 6.99407 21 7C22.119 7.00715 23.2339 7.13624 24.325 7.385C24.5533 7.45562 24.7937 7.47873 25.0313 7.4529C25.2688 7.42707 25.4986 7.35285 25.7064 7.23481C25.9142 7.11678 26.0957 6.95743 26.2395 6.76659C26.3834 6.57575 26.4866 6.35747 26.5429 6.1252C26.5992 5.89293 26.6073 5.6516 26.5667 5.41607C26.5261 5.18055 26.4378 4.95584 26.307 4.75579C26.1763 4.55573 26.0059 4.38457 25.8065 4.25287C25.6071 4.12117 25.3828 4.0317 25.1475 3.99C23.7881 3.66958 22.3966 3.50518 21 3.5C17.5426 3.51796 14.168 4.55966 11.302 6.49364C8.43605 8.42762 6.20719 11.1672 4.8967 14.3667C3.58621 17.5661 3.25282 21.0821 3.9386 24.4709C4.62439 27.8596 6.29861 30.9693 8.74999 33.4075C11.9992 36.6582 16.4039 38.4893 21 38.5C25.6413 38.5 30.0925 36.6563 33.3744 33.3744C36.6562 30.0925 38.5 25.6413 38.5 21C38.5 20.5359 38.3156 20.0908 37.9874 19.7626C37.6592 19.4344 37.2141 19.25 36.75 19.25Z" fill="black"/>
</svg>
