<svg width="24" height="25" viewBox="0 0 24 25" fill="none" xmlns="http://www.w3.org/2000/svg">
<path d="M16 11.5V20C16 20.3978 15.842 20.7794 15.5607 21.0607C15.2794 21.342 14.8978 21.5 14.5 21.5C14.1022 21.5 13.7206 21.342 13.4393 21.0607C13.158 20.7794 13 20.3978 13 20V12.5M13 13V15C13 15.197 12.9612 15.392 12.8858 15.574C12.8104 15.756 12.6999 15.9214 12.5607 16.0607C12.4214 16.1999 12.256 16.3104 12.074 16.3858C11.892 16.4612 11.697 16.5 11.5 16.5C11.303 16.5 11.108 16.4612 10.926 16.3858C10.744 16.3104 10.5786 16.1999 10.4393 16.0607C10.3001 15.9214 10.1896 15.756 10.1142 15.574C10.0388 15.392 10 15.197 10 15V12.5M10 14C10 14.3978 9.84196 14.7794 9.56066 15.0607C9.27936 15.342 8.89782 15.5 8.5 15.5C8.10218 15.5 7.72065 15.342 7.43934 15.0607C7.15804 14.7794 7 14.3978 7 14V12.5" stroke="black" stroke-width="2" stroke-linecap="round" stroke-linejoin="round"/>
<path d="M6.99982 13C6.99982 13.3978 6.84178 13.7794 6.56048 14.0607C6.27917 14.342 5.89764 14.5 5.49982 14.5C5.10199 14.5 4.72046 14.342 4.43916 14.0607C4.15785 13.7794 3.99982 13.3978 3.99982 13V8.5C3.99982 6.9087 4.63196 5.38258 5.75718 4.25736C6.88239 3.13214 8.40852 2.5 9.99982 2.5H11.9998H11.7918C12.7855 2.49983 13.7636 2.74645 14.6384 3.21771C15.5132 3.68898 16.2573 4.37013 16.8038 5.2L16.9998 5.5C17.3118 5.97867 18.4071 7.888 20.2858 11.228C20.4774 11.5685 20.5285 11.9702 20.4284 12.3478C20.3283 12.7255 20.0849 13.0491 19.7498 13.25C19.3928 13.4636 18.9747 13.5521 18.5618 13.5014C18.1488 13.4506 17.7645 13.2637 17.4698 12.97L15.9998 11.5" stroke="black" stroke-width="2" stroke-linecap="round" stroke-linejoin="round"/>
</svg>
